<?xml version="1.0" encoding="us-ascii" standalone="no"?><svg xmlns="http://www.w3.org/2000/svg" xmlns:xlink="http://www.w3.org/1999/xlink" contentStyleType="text/css" height="647px" preserveAspectRatio="none" style="width:1045px;height:647px;background:#FFFFFF;" version="1.1" viewBox="0 0 1045 647" width="1045px" zoomAndPan="magnify"><defs/><g><!--class Poll--><g id="elem_Poll"><rect codeLine="1" fill="#F1F1F1" height="113.1875" id="Poll" rx="2.5" ry="2.5" style="stroke:#181818;stroke-width:0.5;" width="161" x="355" y="173"/><ellipse cx="418.25" cy="189" fill="#ADD1B2" rx="11" ry="11" style="stroke:#181818;stroke-width:1.0;"/><path d="M417.0469,189.875 L418.5,189.875 L418.5,189.9844 C418.5,190.3906 418.5313,190.5469 418.6094,190.7031 C418.7656,190.9531 419.0469,191.1094 419.3438,191.1094 C419.5938,191.1094 419.8594,190.9688 420.0156,190.75 C420.1406,190.5938 420.1719,190.4375 420.1719,189.9844 L420.1719,188.0625 C420.1719,187.9063 420.1719,187.8594 420.1563,187.7031 C420.0938,187.2344 419.7813,186.9219 419.3281,186.9219 C419.0781,186.9219 418.8125,187.0625 418.6406,187.2813 C418.5313,187.4531 418.5,187.6094 418.5,188.0625 L418.5,188.1875 L417.0469,188.1875 L417.0469,185.7813 L421.0313,185.7813 L421.0313,186.6406 C421.0313,187.0469 421.0625,187.2188 421.1406,187.375 C421.3125,187.625 421.5938,187.7813 421.875,187.7813 C422.1406,187.7813 422.4063,187.6406 422.5781,187.4219 C422.6875,187.25 422.7188,187.1094 422.7188,186.6406 L422.7188,184.0938 L415.0938,184.0938 C414.6563,184.0938 414.5313,184.1094 414.375,184.2031 C414.125,184.3594 413.9688,184.6563 413.9688,184.9375 C413.9688,185.2188 414.1094,185.4688 414.3281,185.6406 C414.4844,185.75 414.6719,185.7813 415.0938,185.7813 L415.3438,185.7813 L415.3438,192.2969 L415.0938,192.2969 C414.6875,192.2969 414.5313,192.3125 414.375,192.4219 C414.125,192.5938 413.9688,192.8594 413.9688,193.1563 C413.9688,193.4219 414.1094,193.6719 414.3281,193.8281 C414.4688,193.9531 414.7031,194 415.0938,194 L423.0938,194 L423.0938,191.4219 C423.0938,190.9844 423.0625,190.8438 422.9844,190.6875 C422.8125,190.4375 422.5313,190.2813 422.25,190.2813 C421.9844,190.2813 421.7188,190.3906 421.5469,190.6406 C421.4375,190.7969 421.4063,190.9375 421.4063,191.4219 L421.4063,192.2969 L417.0469,192.2969 L417.0469,189.875 Z " fill="#000000"/><text fill="#000000" font-family="sans-serif" font-size="14" lengthAdjust="spacing" textLength="26" x="438.75" y="193.8467">Poll</text><line style="stroke:#181818;stroke-width:0.5;" x1="356" x2="515" y1="205" y2="205"/><text fill="#000000" font-family="sans-serif" font-size="14" lengthAdjust="spacing" textLength="55" x="361" y="221.9951">id: UUID</text><text fill="#000000" font-family="sans-serif" font-size="14" lengthAdjust="spacing" textLength="128" x="361" y="238.292">description: TEXT</text><text fill="#000000" font-family="sans-serif" font-size="14" lengthAdjust="spacing" textLength="77" x="361" y="254.5889">title: TEXT</text><text fill="#000000" font-family="sans-serif" font-size="14" lengthAdjust="spacing" textLength="149" x="361" y="270.8857">datetime: DATETIME</text><line style="stroke:#181818;stroke-width:0.5;" x1="356" x2="515" y1="278.1875" y2="278.1875"/></g><!--class PollType--><g id="elem_PollType"><rect codeLine="8" fill="#F1F1F1" height="88.8594" id="PollType" rx="2.5" ry="2.5" style="stroke:#181818;stroke-width:0.5;" width="131" x="366" y="7"/><ellipse cx="381" cy="27.1328" fill="#ADD1B2" rx="11" ry="11" style="stroke:#181818;stroke-width:1.0;"/><path d="M379.7969,28.0078 L381.25,28.0078 L381.25,28.1172 C381.25,28.5234 381.2813,28.6797 381.3594,28.8359 C381.5156,29.0859 381.7969,29.2422 382.0938,29.2422 C382.3438,29.2422 382.6094,29.1016 382.7656,28.8828 C382.8906,28.7266 382.9219,28.5703 382.9219,28.1172 L382.9219,26.1953 C382.9219,26.0391 382.9219,25.9922 382.9063,25.8359 C382.8438,25.3672 382.5313,25.0547 382.0781,25.0547 C381.8281,25.0547 381.5625,25.1953 381.3906,25.4141 C381.2813,25.5859 381.25,25.7422 381.25,26.1953 L381.25,26.3203 L379.7969,26.3203 L379.7969,23.9141 L383.7813,23.9141 L383.7813,24.7734 C383.7813,25.1797 383.8125,25.3516 383.8906,25.5078 C384.0625,25.7578 384.3438,25.9141 384.625,25.9141 C384.8906,25.9141 385.1563,25.7734 385.3281,25.5547 C385.4375,25.3828 385.4688,25.2422 385.4688,24.7734 L385.4688,22.2266 L377.8438,22.2266 C377.4063,22.2266 377.2813,22.2422 377.125,22.3359 C376.875,22.4922 376.7188,22.7891 376.7188,23.0703 C376.7188,23.3516 376.8594,23.6016 377.0781,23.7734 C377.2344,23.8828 377.4219,23.9141 377.8438,23.9141 L378.0938,23.9141 L378.0938,30.4297 L377.8438,30.4297 C377.4375,30.4297 377.2813,30.4453 377.125,30.5547 C376.875,30.7266 376.7188,30.9922 376.7188,31.2891 C376.7188,31.5547 376.8594,31.8047 377.0781,31.9609 C377.2188,32.0859 377.4531,32.1328 377.8438,32.1328 L385.8438,32.1328 L385.8438,29.5547 C385.8438,29.1172 385.8125,28.9766 385.7344,28.8203 C385.5625,28.5703 385.2813,28.4141 385,28.4141 C384.7344,28.4141 384.4688,28.5234 384.2969,28.7734 C384.1875,28.9297 384.1563,29.0703 384.1563,29.5547 L384.1563,30.4297 L379.7969,30.4297 L379.7969,28.0078 Z " fill="#000000"/><text fill="#000000" font-family="sans-serif" font-size="12" font-style="italic" lengthAdjust="spacing" textLength="103" x="393" y="23.1387">&#171;ENUMERATION&#187;</text><text fill="#000000" font-family="sans-serif" font-size="14" lengthAdjust="spacing" textLength="62" x="413.5" y="38.9639">PollType</text><line style="stroke:#181818;stroke-width:0.5;" x1="367" x2="496" y1="47.2656" y2="47.2656"/><text fill="#000000" font-family="sans-serif" font-size="14" lengthAdjust="spacing" textLength="55" x="372" y="64.2607">id: UUID</text><text fill="#000000" font-family="sans-serif" font-size="14" lengthAdjust="spacing" textLength="86" x="372" y="80.5576">name: TEXT</text><line style="stroke:#181818;stroke-width:0.5;" x1="367" x2="496" y1="87.8594" y2="87.8594"/></g><!--class Account--><g id="elem_Account"><rect codeLine="13" fill="#F1F1F1" height="113.1875" id="Account" rx="2.5" ry="2.5" style="stroke:#181818;stroke-width:0.5;" width="128" x="560.5" y="173"/><ellipse cx="592.15" cy="189" fill="#ADD1B2" rx="11" ry="11" style="stroke:#181818;stroke-width:1.0;"/><path d="M590.9469,189.875 L592.4,189.875 L592.4,189.9844 C592.4,190.3906 592.4313,190.5469 592.5094,190.7031 C592.6656,190.9531 592.9469,191.1094 593.2438,191.1094 C593.4938,191.1094 593.7594,190.9688 593.9156,190.75 C594.0406,190.5938 594.0719,190.4375 594.0719,189.9844 L594.0719,188.0625 C594.0719,187.9063 594.0719,187.8594 594.0563,187.7031 C593.9938,187.2344 593.6813,186.9219 593.2281,186.9219 C592.9781,186.9219 592.7125,187.0625 592.5406,187.2813 C592.4313,187.4531 592.4,187.6094 592.4,188.0625 L592.4,188.1875 L590.9469,188.1875 L590.9469,185.7813 L594.9313,185.7813 L594.9313,186.6406 C594.9313,187.0469 594.9625,187.2188 595.0406,187.375 C595.2125,187.625 595.4938,187.7813 595.775,187.7813 C596.0406,187.7813 596.3063,187.6406 596.4781,187.4219 C596.5875,187.25 596.6188,187.1094 596.6188,186.6406 L596.6188,184.0938 L588.9938,184.0938 C588.5563,184.0938 588.4313,184.1094 588.275,184.2031 C588.025,184.3594 587.8688,184.6563 587.8688,184.9375 C587.8688,185.2188 588.0094,185.4688 588.2281,185.6406 C588.3844,185.75 588.5719,185.7813 588.9938,185.7813 L589.2438,185.7813 L589.2438,192.2969 L588.9938,192.2969 C588.5875,192.2969 588.4313,192.3125 588.275,192.4219 C588.025,192.5938 587.8688,192.8594 587.8688,193.1563 C587.8688,193.4219 588.0094,193.6719 588.2281,193.8281 C588.3688,193.9531 588.6031,194 588.9938,194 L596.9938,194 L596.9938,191.4219 C596.9938,190.9844 596.9625,190.8438 596.8844,190.6875 C596.7125,190.4375 596.4313,190.2813 596.15,190.2813 C595.8844,190.2813 595.6188,190.3906 595.4469,190.6406 C595.3375,190.7969 595.3063,190.9375 595.3063,191.4219 L595.3063,192.2969 L590.9469,192.2969 L590.9469,189.875 Z " fill="#000000"/><text fill="#000000" font-family="sans-serif" font-size="14" lengthAdjust="spacing" textLength="59" x="609.85" y="193.8467">Account</text><line style="stroke:#181818;stroke-width:0.5;" x1="561.5" x2="687.5" y1="205" y2="205"/><text fill="#000000" font-family="sans-serif" font-size="14" lengthAdjust="spacing" textLength="55" x="566.5" y="221.9951">id: UUID</text><text fill="#000000" font-family="sans-serif" font-size="14" lengthAdjust="spacing" textLength="85" x="566.5" y="238.292">email: TEXT</text><text fill="#000000" font-family="sans-serif" font-size="14" lengthAdjust="spacing" textLength="113" x="566.5" y="254.5889">password: TEXT</text><text fill="#000000" font-family="sans-serif" font-size="14" lengthAdjust="spacing" textLength="116" x="566.5" y="270.8857">username: TEXT</text><line style="stroke:#181818;stroke-width:0.5;" x1="561.5" x2="687.5" y1="278.1875" y2="278.1875"/></g><!--class Query--><g id="elem_Query"><rect codeLine="20" fill="#F1F1F1" height="80.5938" id="Query" rx="2.5" ry="2.5" style="stroke:#181818;stroke-width:0.5;" width="116" x="203.5" y="189"/><ellipse cx="237.4" cy="205" fill="#ADD1B2" rx="11" ry="11" style="stroke:#181818;stroke-width:1.0;"/><path d="M236.1969,205.875 L237.65,205.875 L237.65,205.9844 C237.65,206.3906 237.6813,206.5469 237.7594,206.7031 C237.9156,206.9531 238.1969,207.1094 238.4938,207.1094 C238.7438,207.1094 239.0094,206.9688 239.1656,206.75 C239.2906,206.5938 239.3219,206.4375 239.3219,205.9844 L239.3219,204.0625 C239.3219,203.9063 239.3219,203.8594 239.3063,203.7031 C239.2438,203.2344 238.9313,202.9219 238.4781,202.9219 C238.2281,202.9219 237.9625,203.0625 237.7906,203.2813 C237.6813,203.4531 237.65,203.6094 237.65,204.0625 L237.65,204.1875 L236.1969,204.1875 L236.1969,201.7813 L240.1813,201.7813 L240.1813,202.6406 C240.1813,203.0469 240.2125,203.2188 240.2906,203.375 C240.4625,203.625 240.7438,203.7813 241.025,203.7813 C241.2906,203.7813 241.5563,203.6406 241.7281,203.4219 C241.8375,203.25 241.8688,203.1094 241.8688,202.6406 L241.8688,200.0938 L234.2438,200.0938 C233.8063,200.0938 233.6813,200.1094 233.525,200.2031 C233.275,200.3594 233.1188,200.6563 233.1188,200.9375 C233.1188,201.2188 233.2594,201.4688 233.4781,201.6406 C233.6344,201.75 233.8219,201.7813 234.2438,201.7813 L234.4938,201.7813 L234.4938,208.2969 L234.2438,208.2969 C233.8375,208.2969 233.6813,208.3125 233.525,208.4219 C233.275,208.5938 233.1188,208.8594 233.1188,209.1563 C233.1188,209.4219 233.2594,209.6719 233.4781,209.8281 C233.6188,209.9531 233.8531,210 234.2438,210 L242.2438,210 L242.2438,207.4219 C242.2438,206.9844 242.2125,206.8438 242.1344,206.6875 C241.9625,206.4375 241.6813,206.2813 241.4,206.2813 C241.1344,206.2813 240.8688,206.3906 240.6969,206.6406 C240.5875,206.7969 240.5563,206.9375 240.5563,207.4219 L240.5563,208.2969 L236.1969,208.2969 L236.1969,205.875 Z " fill="#000000"/><text fill="#000000" font-family="sans-serif" font-size="14" lengthAdjust="spacing" textLength="42" x="255.6" y="209.8467">Query</text><line style="stroke:#181818;stroke-width:0.5;" x1="204.5" x2="318.5" y1="221" y2="221"/><text fill="#000000" font-family="sans-serif" font-size="14" lengthAdjust="spacing" textLength="55" x="209.5" y="237.9951">id: UUID</text><text fill="#000000" font-family="sans-serif" font-size="14" lengthAdjust="spacing" textLength="104" x="209.5" y="254.292">content: TEXT</text><line style="stroke:#181818;stroke-width:0.5;" x1="204.5" x2="318.5" y1="261.5938" y2="261.5938"/></g><!--class QueryType--><g id="elem_QueryType"><rect codeLine="25" fill="#F1F1F1" height="88.8594" id="QueryType" rx="2.5" ry="2.5" style="stroke:#181818;stroke-width:0.5;" width="131" x="196" y="7"/><ellipse cx="211" cy="27.1328" fill="#ADD1B2" rx="11" ry="11" style="stroke:#181818;stroke-width:1.0;"/><path d="M209.7969,28.0078 L211.25,28.0078 L211.25,28.1172 C211.25,28.5234 211.2813,28.6797 211.3594,28.8359 C211.5156,29.0859 211.7969,29.2422 212.0938,29.2422 C212.3438,29.2422 212.6094,29.1016 212.7656,28.8828 C212.8906,28.7266 212.9219,28.5703 212.9219,28.1172 L212.9219,26.1953 C212.9219,26.0391 212.9219,25.9922 212.9063,25.8359 C212.8438,25.3672 212.5313,25.0547 212.0781,25.0547 C211.8281,25.0547 211.5625,25.1953 211.3906,25.4141 C211.2813,25.5859 211.25,25.7422 211.25,26.1953 L211.25,26.3203 L209.7969,26.3203 L209.7969,23.9141 L213.7813,23.9141 L213.7813,24.7734 C213.7813,25.1797 213.8125,25.3516 213.8906,25.5078 C214.0625,25.7578 214.3438,25.9141 214.625,25.9141 C214.8906,25.9141 215.1563,25.7734 215.3281,25.5547 C215.4375,25.3828 215.4688,25.2422 215.4688,24.7734 L215.4688,22.2266 L207.8438,22.2266 C207.4063,22.2266 207.2813,22.2422 207.125,22.3359 C206.875,22.4922 206.7188,22.7891 206.7188,23.0703 C206.7188,23.3516 206.8594,23.6016 207.0781,23.7734 C207.2344,23.8828 207.4219,23.9141 207.8438,23.9141 L208.0938,23.9141 L208.0938,30.4297 L207.8438,30.4297 C207.4375,30.4297 207.2813,30.4453 207.125,30.5547 C206.875,30.7266 206.7188,30.9922 206.7188,31.2891 C206.7188,31.5547 206.8594,31.8047 207.0781,31.9609 C207.2188,32.0859 207.4531,32.1328 207.8438,32.1328 L215.8438,32.1328 L215.8438,29.5547 C215.8438,29.1172 215.8125,28.9766 215.7344,28.8203 C215.5625,28.5703 215.2813,28.4141 215,28.4141 C214.7344,28.4141 214.4688,28.5234 214.2969,28.7734 C214.1875,28.9297 214.1563,29.0703 214.1563,29.5547 L214.1563,30.4297 L209.7969,30.4297 L209.7969,28.0078 Z " fill="#000000"/><text fill="#000000" font-family="sans-serif" font-size="12" font-style="italic" lengthAdjust="spacing" textLength="103" x="223" y="23.1387">&#171;ENUMERATION&#187;</text><text fill="#000000" font-family="sans-serif" font-size="14" lengthAdjust="spacing" textLength="78" x="235.5" y="38.9639">QueryType</text><line style="stroke:#181818;stroke-width:0.5;" x1="197" x2="326" y1="47.2656" y2="47.2656"/><text fill="#000000" font-family="sans-serif" font-size="14" lengthAdjust="spacing" textLength="55" x="202" y="64.2607">id: UUID</text><text fill="#000000" font-family="sans-serif" font-size="14" lengthAdjust="spacing" textLength="86" x="202" y="80.5576">name: TEXT</text><line style="stroke:#181818;stroke-width:0.5;" x1="197" x2="326" y1="87.8594" y2="87.8594"/></g><!--class Answer--><g id="elem_Answer"><rect codeLine="30" fill="#F1F1F1" height="96.8906" id="Answer" rx="2.5" ry="2.5" style="stroke:#181818;stroke-width:0.5;" width="161" x="7" y="181"/><ellipse cx="57.25" cy="197" fill="#ADD1B2" rx="11" ry="11" style="stroke:#181818;stroke-width:1.0;"/><path d="M56.0469,197.875 L57.5,197.875 L57.5,197.9844 C57.5,198.3906 57.5313,198.5469 57.6094,198.7031 C57.7656,198.9531 58.0469,199.1094 58.3438,199.1094 C58.5938,199.1094 58.8594,198.9688 59.0156,198.75 C59.1406,198.5938 59.1719,198.4375 59.1719,197.9844 L59.1719,196.0625 C59.1719,195.9063 59.1719,195.8594 59.1563,195.7031 C59.0938,195.2344 58.7813,194.9219 58.3281,194.9219 C58.0781,194.9219 57.8125,195.0625 57.6406,195.2813 C57.5313,195.4531 57.5,195.6094 57.5,196.0625 L57.5,196.1875 L56.0469,196.1875 L56.0469,193.7813 L60.0313,193.7813 L60.0313,194.6406 C60.0313,195.0469 60.0625,195.2188 60.1406,195.375 C60.3125,195.625 60.5938,195.7813 60.875,195.7813 C61.1406,195.7813 61.4063,195.6406 61.5781,195.4219 C61.6875,195.25 61.7188,195.1094 61.7188,194.6406 L61.7188,192.0938 L54.0938,192.0938 C53.6563,192.0938 53.5313,192.1094 53.375,192.2031 C53.125,192.3594 52.9688,192.6563 52.9688,192.9375 C52.9688,193.2188 53.1094,193.4688 53.3281,193.6406 C53.4844,193.75 53.6719,193.7813 54.0938,193.7813 L54.3438,193.7813 L54.3438,200.2969 L54.0938,200.2969 C53.6875,200.2969 53.5313,200.3125 53.375,200.4219 C53.125,200.5938 52.9688,200.8594 52.9688,201.1563 C52.9688,201.4219 53.1094,201.6719 53.3281,201.8281 C53.4688,201.9531 53.7031,202 54.0938,202 L62.0938,202 L62.0938,199.4219 C62.0938,198.9844 62.0625,198.8438 61.9844,198.6875 C61.8125,198.4375 61.5313,198.2813 61.25,198.2813 C60.9844,198.2813 60.7188,198.3906 60.5469,198.6406 C60.4375,198.7969 60.4063,198.9375 60.4063,199.4219 L60.4063,200.2969 L56.0469,200.2969 L56.0469,197.875 Z " fill="#000000"/><text fill="#000000" font-family="sans-serif" font-size="14" lengthAdjust="spacing" textLength="52" x="77.75" y="201.8467">Answer</text><line style="stroke:#181818;stroke-width:0.5;" x1="8" x2="167" y1="213" y2="213"/><text fill="#000000" font-family="sans-serif" font-size="14" lengthAdjust="spacing" textLength="55" x="13" y="229.9951">id: UUID</text><text fill="#000000" font-family="sans-serif" font-size="14" lengthAdjust="spacing" textLength="128" x="13" y="246.292">description: TEXT</text><text fill="#000000" font-family="sans-serif" font-size="14" lengthAdjust="spacing" textLength="149" x="13" y="262.5889">datetime: DATETIME</text><line style="stroke:#181818;stroke-width:0.5;" x1="8" x2="167" y1="269.8906" y2="269.8906"/></g><!--class Option--><g id="elem_Option"><rect codeLine="36" fill="#F1F1F1" height="80.5938" id="Option" rx="2.5" ry="2.5" style="stroke:#181818;stroke-width:0.5;" width="140" x="173.5" y="560"/><ellipse cx="214.6" cy="576" fill="#ADD1B2" rx="11" ry="11" style="stroke:#181818;stroke-width:1.0;"/><path d="M213.3969,576.875 L214.85,576.875 L214.85,576.9844 C214.85,577.3906 214.8813,577.5469 214.9594,577.7031 C215.1156,577.9531 215.3969,578.1094 215.6938,578.1094 C215.9438,578.1094 216.2094,577.9688 216.3656,577.75 C216.4906,577.5938 216.5219,577.4375 216.5219,576.9844 L216.5219,575.0625 C216.5219,574.9063 216.5219,574.8594 216.5063,574.7031 C216.4438,574.2344 216.1313,573.9219 215.6781,573.9219 C215.4281,573.9219 215.1625,574.0625 214.9906,574.2813 C214.8813,574.4531 214.85,574.6094 214.85,575.0625 L214.85,575.1875 L213.3969,575.1875 L213.3969,572.7813 L217.3813,572.7813 L217.3813,573.6406 C217.3813,574.0469 217.4125,574.2188 217.4906,574.375 C217.6625,574.625 217.9438,574.7813 218.225,574.7813 C218.4906,574.7813 218.7563,574.6406 218.9281,574.4219 C219.0375,574.25 219.0688,574.1094 219.0688,573.6406 L219.0688,571.0938 L211.4438,571.0938 C211.0063,571.0938 210.8813,571.1094 210.725,571.2031 C210.475,571.3594 210.3188,571.6563 210.3188,571.9375 C210.3188,572.2188 210.4594,572.4688 210.6781,572.6406 C210.8344,572.75 211.0219,572.7813 211.4438,572.7813 L211.6938,572.7813 L211.6938,579.2969 L211.4438,579.2969 C211.0375,579.2969 210.8813,579.3125 210.725,579.4219 C210.475,579.5938 210.3188,579.8594 210.3188,580.1563 C210.3188,580.4219 210.4594,580.6719 210.6781,580.8281 C210.8188,580.9531 211.0531,581 211.4438,581 L219.4438,581 L219.4438,578.4219 C219.4438,577.9844 219.4125,577.8438 219.3344,577.6875 C219.1625,577.4375 218.8813,577.2813 218.6,577.2813 C218.3344,577.2813 218.0688,577.3906 217.8969,577.6406 C217.7875,577.7969 217.7563,577.9375 217.7563,578.4219 L217.7563,579.2969 L213.3969,579.2969 L213.3969,576.875 Z " fill="#000000"/><text fill="#000000" font-family="sans-serif" font-size="14" lengthAdjust="spacing" textLength="50" x="234.4" y="580.8467">Option</text><line style="stroke:#181818;stroke-width:0.5;" x1="174.5" x2="312.5" y1="592" y2="592"/><text fill="#000000" font-family="sans-serif" font-size="14" lengthAdjust="spacing" textLength="55" x="179.5" y="608.9951">id: UUID</text><text fill="#000000" font-family="sans-serif" font-size="14" lengthAdjust="spacing" textLength="128" x="179.5" y="625.292">description: TEXT</text><line style="stroke:#181818;stroke-width:0.5;" x1="174.5" x2="312.5" y1="632.5938" y2="632.5938"/></g><!--class OptionType--><g id="elem_OptionType"><rect codeLine="41" fill="#F1F1F1" height="88.8594" id="OptionType" rx="2.5" ry="2.5" style="stroke:#181818;stroke-width:0.5;" width="131" x="297" y="410"/><ellipse cx="312" cy="430.1328" fill="#ADD1B2" rx="11" ry="11" style="stroke:#181818;stroke-width:1.0;"/><path d="M310.7969,431.0078 L312.25,431.0078 L312.25,431.1172 C312.25,431.5234 312.2813,431.6797 312.3594,431.8359 C312.5156,432.0859 312.7969,432.2422 313.0938,432.2422 C313.3438,432.2422 313.6094,432.1016 313.7656,431.8828 C313.8906,431.7266 313.9219,431.5703 313.9219,431.1172 L313.9219,429.1953 C313.9219,429.0391 313.9219,428.9922 313.9063,428.8359 C313.8438,428.3672 313.5313,428.0547 313.0781,428.0547 C312.8281,428.0547 312.5625,428.1953 312.3906,428.4141 C312.2813,428.5859 312.25,428.7422 312.25,429.1953 L312.25,429.3203 L310.7969,429.3203 L310.7969,426.9141 L314.7813,426.9141 L314.7813,427.7734 C314.7813,428.1797 314.8125,428.3516 314.8906,428.5078 C315.0625,428.7578 315.3438,428.9141 315.625,428.9141 C315.8906,428.9141 316.1563,428.7734 316.3281,428.5547 C316.4375,428.3828 316.4688,428.2422 316.4688,427.7734 L316.4688,425.2266 L308.8438,425.2266 C308.4063,425.2266 308.2813,425.2422 308.125,425.3359 C307.875,425.4922 307.7188,425.7891 307.7188,426.0703 C307.7188,426.3516 307.8594,426.6016 308.0781,426.7734 C308.2344,426.8828 308.4219,426.9141 308.8438,426.9141 L309.0938,426.9141 L309.0938,433.4297 L308.8438,433.4297 C308.4375,433.4297 308.2813,433.4453 308.125,433.5547 C307.875,433.7266 307.7188,433.9922 307.7188,434.2891 C307.7188,434.5547 307.8594,434.8047 308.0781,434.9609 C308.2188,435.0859 308.4531,435.1328 308.8438,435.1328 L316.8438,435.1328 L316.8438,432.5547 C316.8438,432.1172 316.8125,431.9766 316.7344,431.8203 C316.5625,431.5703 316.2813,431.4141 316,431.4141 C315.7344,431.4141 315.4688,431.5234 315.2969,431.7734 C315.1875,431.9297 315.1563,432.0703 315.1563,432.5547 L315.1563,433.4297 L310.7969,433.4297 L310.7969,431.0078 Z " fill="#000000"/><text fill="#000000" font-family="sans-serif" font-size="12" font-style="italic" lengthAdjust="spacing" textLength="103" x="324" y="426.1387">&#171;ENUMERATION&#187;</text><text fill="#000000" font-family="sans-serif" font-size="14" lengthAdjust="spacing" textLength="86" x="332.5" y="441.9639">OptionType</text><line style="stroke:#181818;stroke-width:0.5;" x1="298" x2="427" y1="450.2656" y2="450.2656"/><text fill="#000000" font-family="sans-serif" font-size="14" lengthAdjust="spacing" textLength="55" x="303" y="467.2607">id: UUID</text><text fill="#000000" font-family="sans-serif" font-size="14" lengthAdjust="spacing" textLength="86" x="303" y="483.5576">name: TEXT</text><line style="stroke:#181818;stroke-width:0.5;" x1="298" x2="427" y1="490.8594" y2="490.8594"/></g><!--class ChosenOption--><g id="elem_ChosenOption"><rect codeLine="46" fill="#F1F1F1" height="64.2969" id="ChosenOption" rx="2.5" ry="2.5" style="stroke:#181818;stroke-width:0.5;" width="161" x="24" y="316"/><ellipse cx="50.7" cy="332" fill="#ADD1B2" rx="11" ry="11" style="stroke:#181818;stroke-width:1.0;"/><path d="M49.4969,332.875 L50.95,332.875 L50.95,332.9844 C50.95,333.3906 50.9813,333.5469 51.0594,333.7031 C51.2156,333.9531 51.4969,334.1094 51.7938,334.1094 C52.0438,334.1094 52.3094,333.9688 52.4656,333.75 C52.5906,333.5938 52.6219,333.4375 52.6219,332.9844 L52.6219,331.0625 C52.6219,330.9063 52.6219,330.8594 52.6063,330.7031 C52.5438,330.2344 52.2313,329.9219 51.7781,329.9219 C51.5281,329.9219 51.2625,330.0625 51.0906,330.2813 C50.9813,330.4531 50.95,330.6094 50.95,331.0625 L50.95,331.1875 L49.4969,331.1875 L49.4969,328.7813 L53.4813,328.7813 L53.4813,329.6406 C53.4813,330.0469 53.5125,330.2188 53.5906,330.375 C53.7625,330.625 54.0438,330.7813 54.325,330.7813 C54.5906,330.7813 54.8563,330.6406 55.0281,330.4219 C55.1375,330.25 55.1688,330.1094 55.1688,329.6406 L55.1688,327.0938 L47.5438,327.0938 C47.1063,327.0938 46.9813,327.1094 46.825,327.2031 C46.575,327.3594 46.4188,327.6563 46.4188,327.9375 C46.4188,328.2188 46.5594,328.4688 46.7781,328.6406 C46.9344,328.75 47.1219,328.7813 47.5438,328.7813 L47.7938,328.7813 L47.7938,335.2969 L47.5438,335.2969 C47.1375,335.2969 46.9813,335.3125 46.825,335.4219 C46.575,335.5938 46.4188,335.8594 46.4188,336.1563 C46.4188,336.4219 46.5594,336.6719 46.7781,336.8281 C46.9188,336.9531 47.1531,337 47.5438,337 L55.5438,337 L55.5438,334.4219 C55.5438,333.9844 55.5125,333.8438 55.4344,333.6875 C55.2625,333.4375 54.9813,333.2813 54.7,333.2813 C54.4344,333.2813 54.1688,333.3906 53.9969,333.6406 C53.8875,333.7969 53.8563,333.9375 53.8563,334.4219 L53.8563,335.2969 L49.4969,335.2969 L49.4969,332.875 Z " fill="#000000"/><text fill="#000000" font-family="sans-serif" font-size="14" lengthAdjust="spacing" textLength="103" x="67.3" y="336.8467">ChosenOption</text><line style="stroke:#181818;stroke-width:0.5;" x1="25" x2="184" y1="348" y2="348"/><text fill="#000000" font-family="sans-serif" font-size="14" lengthAdjust="spacing" textLength="149" x="30" y="364.9951">datetime: DATETIME</text><line style="stroke:#181818;stroke-width:0.5;" x1="25" x2="184" y1="372.2969" y2="372.2969"/></g><!--class Action--><g id="elem_Action"><rect codeLine="50" fill="#F1F1F1" height="80.5938" id="Action" rx="2.5" ry="2.5" style="stroke:#181818;stroke-width:0.5;" width="253" x="532" y="11"/><ellipse cx="630.75" cy="27" fill="#ADD1B2" rx="11" ry="11" style="stroke:#181818;stroke-width:1.0;"/><path d="M629.5469,27.875 L631,27.875 L631,27.9844 C631,28.3906 631.0313,28.5469 631.1094,28.7031 C631.2656,28.9531 631.5469,29.1094 631.8438,29.1094 C632.0938,29.1094 632.3594,28.9688 632.5156,28.75 C632.6406,28.5938 632.6719,28.4375 632.6719,27.9844 L632.6719,26.0625 C632.6719,25.9063 632.6719,25.8594 632.6563,25.7031 C632.5938,25.2344 632.2813,24.9219 631.8281,24.9219 C631.5781,24.9219 631.3125,25.0625 631.1406,25.2813 C631.0313,25.4531 631,25.6094 631,26.0625 L631,26.1875 L629.5469,26.1875 L629.5469,23.7813 L633.5313,23.7813 L633.5313,24.6406 C633.5313,25.0469 633.5625,25.2188 633.6406,25.375 C633.8125,25.625 634.0938,25.7813 634.375,25.7813 C634.6406,25.7813 634.9063,25.6406 635.0781,25.4219 C635.1875,25.25 635.2188,25.1094 635.2188,24.6406 L635.2188,22.0938 L627.5938,22.0938 C627.1563,22.0938 627.0313,22.1094 626.875,22.2031 C626.625,22.3594 626.4688,22.6563 626.4688,22.9375 C626.4688,23.2188 626.6094,23.4688 626.8281,23.6406 C626.9844,23.75 627.1719,23.7813 627.5938,23.7813 L627.8438,23.7813 L627.8438,30.2969 L627.5938,30.2969 C627.1875,30.2969 627.0313,30.3125 626.875,30.4219 C626.625,30.5938 626.4688,30.8594 626.4688,31.1563 C626.4688,31.4219 626.6094,31.6719 626.8281,31.8281 C626.9688,31.9531 627.2031,32 627.5938,32 L635.5938,32 L635.5938,29.4219 C635.5938,28.9844 635.5625,28.8438 635.4844,28.6875 C635.3125,28.4375 635.0313,28.2813 634.75,28.2813 C634.4844,28.2813 634.2188,28.3906 634.0469,28.6406 C633.9375,28.7969 633.9063,28.9375 633.9063,29.4219 L633.9063,30.2969 L629.5469,30.2969 L629.5469,27.875 Z " fill="#000000"/><text fill="#000000" font-family="sans-serif" font-size="14" lengthAdjust="spacing" textLength="47" x="651.25" y="31.8467">Action</text><line style="stroke:#181818;stroke-width:0.5;" x1="533" x2="784" y1="43" y2="43"/><text fill="#000000" font-family="sans-serif" font-size="14" lengthAdjust="spacing" textLength="241" x="538" y="59.9951">datetime: DATETIME &#171;NULLABLE&#187;</text><text fill="#000000" font-family="sans-serif" font-size="14" lengthAdjust="spacing" textLength="116" x="538" y="76.292">comment: TEXT</text><line style="stroke:#181818;stroke-width:0.5;" x1="533" x2="784" y1="83.5938" y2="83.5938"/></g><!--class State--><g id="elem_State"><rect codeLine="55" fill="#F1F1F1" height="105.1563" id="State" rx="2.5" ry="2.5" style="stroke:#181818;stroke-width:0.5;" width="140" x="898.5" y="177"/><ellipse cx="917.55" cy="197.1328" fill="#ADD1B2" rx="11" ry="11" style="stroke:#181818;stroke-width:1.0;"/><path d="M916.3469,198.0078 L917.8,198.0078 L917.8,198.1172 C917.8,198.5234 917.8313,198.6797 917.9094,198.8359 C918.0656,199.0859 918.3469,199.2422 918.6438,199.2422 C918.8938,199.2422 919.1594,199.1016 919.3156,198.8828 C919.4406,198.7266 919.4719,198.5703 919.4719,198.1172 L919.4719,196.1953 C919.4719,196.0391 919.4719,195.9922 919.4563,195.8359 C919.3938,195.3672 919.0813,195.0547 918.6281,195.0547 C918.3781,195.0547 918.1125,195.1953 917.9406,195.4141 C917.8313,195.5859 917.8,195.7422 917.8,196.1953 L917.8,196.3203 L916.3469,196.3203 L916.3469,193.9141 L920.3313,193.9141 L920.3313,194.7734 C920.3313,195.1797 920.3625,195.3516 920.4406,195.5078 C920.6125,195.7578 920.8938,195.9141 921.175,195.9141 C921.4406,195.9141 921.7063,195.7734 921.8781,195.5547 C921.9875,195.3828 922.0188,195.2422 922.0188,194.7734 L922.0188,192.2266 L914.3938,192.2266 C913.9563,192.2266 913.8313,192.2422 913.675,192.3359 C913.425,192.4922 913.2688,192.7891 913.2688,193.0703 C913.2688,193.3516 913.4094,193.6016 913.6281,193.7734 C913.7844,193.8828 913.9719,193.9141 914.3938,193.9141 L914.6438,193.9141 L914.6438,200.4297 L914.3938,200.4297 C913.9875,200.4297 913.8313,200.4453 913.675,200.5547 C913.425,200.7266 913.2688,200.9922 913.2688,201.2891 C913.2688,201.5547 913.4094,201.8047 913.6281,201.9609 C913.7688,202.0859 914.0031,202.1328 914.3938,202.1328 L922.3938,202.1328 L922.3938,199.5547 C922.3938,199.1172 922.3625,198.9766 922.2844,198.8203 C922.1125,198.5703 921.8313,198.4141 921.55,198.4141 C921.2844,198.4141 921.0188,198.5234 920.8469,198.7734 C920.7375,198.9297 920.7063,199.0703 920.7063,199.5547 L920.7063,200.4297 L916.3469,200.4297 L916.3469,198.0078 Z " fill="#000000"/><text fill="#000000" font-family="sans-serif" font-size="12" font-style="italic" lengthAdjust="spacing" textLength="103" x="930.45" y="193.1387">&#171;ENUMERATION&#187;</text><text fill="#000000" font-family="sans-serif" font-size="14" lengthAdjust="spacing" textLength="40" x="961.95" y="208.9639">State</text><line style="stroke:#181818;stroke-width:0.5;" x1="899.5" x2="1037.5" y1="217.2656" y2="217.2656"/><text fill="#000000" font-family="sans-serif" font-size="14" lengthAdjust="spacing" textLength="55" x="904.5" y="234.2607">id: UUID</text><text fill="#000000" font-family="sans-serif" font-size="14" lengthAdjust="spacing" textLength="86" x="904.5" y="250.5576">name: TEXT</text><text fill="#000000" font-family="sans-serif" font-size="14" lengthAdjust="spacing" textLength="128" x="904.5" y="266.8545">description: TEXT</text><line style="stroke:#181818;stroke-width:0.5;" x1="899.5" x2="1037.5" y1="274.1563" y2="274.1563"/></g><!--class StateResolve--><g id="elem_StateResolve"><rect codeLine="61" fill="#F1F1F1" height="72.5625" id="StateResolve" rx="2.5" ry="2.5" style="stroke:#181818;stroke-width:0.5;" width="131" x="864" y="15"/><ellipse cx="879" cy="35.1328" fill="#ADD1B2" rx="11" ry="11" style="stroke:#181818;stroke-width:1.0;"/><path d="M877.7969,36.0078 L879.25,36.0078 L879.25,36.1172 C879.25,36.5234 879.2813,36.6797 879.3594,36.8359 C879.5156,37.0859 879.7969,37.2422 880.0938,37.2422 C880.3438,37.2422 880.6094,37.1016 880.7656,36.8828 C880.8906,36.7266 880.9219,36.5703 880.9219,36.1172 L880.9219,34.1953 C880.9219,34.0391 880.9219,33.9922 880.9063,33.8359 C880.8438,33.3672 880.5313,33.0547 880.0781,33.0547 C879.8281,33.0547 879.5625,33.1953 879.3906,33.4141 C879.2813,33.5859 879.25,33.7422 879.25,34.1953 L879.25,34.3203 L877.7969,34.3203 L877.7969,31.9141 L881.7813,31.9141 L881.7813,32.7734 C881.7813,33.1797 881.8125,33.3516 881.8906,33.5078 C882.0625,33.7578 882.3438,33.9141 882.625,33.9141 C882.8906,33.9141 883.1563,33.7734 883.3281,33.5547 C883.4375,33.3828 883.4688,33.2422 883.4688,32.7734 L883.4688,30.2266 L875.8438,30.2266 C875.4063,30.2266 875.2813,30.2422 875.125,30.3359 C874.875,30.4922 874.7188,30.7891 874.7188,31.0703 C874.7188,31.3516 874.8594,31.6016 875.0781,31.7734 C875.2344,31.8828 875.4219,31.9141 875.8438,31.9141 L876.0938,31.9141 L876.0938,38.4297 L875.8438,38.4297 C875.4375,38.4297 875.2813,38.4453 875.125,38.5547 C874.875,38.7266 874.7188,38.9922 874.7188,39.2891 C874.7188,39.5547 874.8594,39.8047 875.0781,39.9609 C875.2188,40.0859 875.4531,40.1328 875.8438,40.1328 L883.8438,40.1328 L883.8438,37.5547 C883.8438,37.1172 883.8125,36.9766 883.7344,36.8203 C883.5625,36.5703 883.2813,36.4141 883,36.4141 C882.7344,36.4141 882.4688,36.5234 882.2969,36.7734 C882.1875,36.9297 882.1563,37.0703 882.1563,37.5547 L882.1563,38.4297 L877.7969,38.4297 L877.7969,36.0078 Z " fill="#000000"/><text fill="#000000" font-family="sans-serif" font-size="12" font-style="italic" lengthAdjust="spacing" textLength="103" x="891" y="31.1387">&#171;ENUMERATION&#187;</text><text fill="#000000" font-family="sans-serif" font-size="14" lengthAdjust="spacing" textLength="96" x="894.5" y="46.9639">StateResolve</text><line style="stroke:#181818;stroke-width:0.5;" x1="865" x2="994" y1="55.2656" y2="55.2656"/><text fill="#000000" font-family="sans-serif" font-size="14" lengthAdjust="spacing" textLength="73" x="870" y="72.2607">rule: TEXT</text><line style="stroke:#181818;stroke-width:0.5;" x1="865" x2="994" y1="79.5625" y2="79.5625"/></g><!--class Role--><g id="elem_Role"><rect codeLine="65" fill="#F1F1F1" height="105.1563" id="Role" rx="2.5" ry="2.5" style="stroke:#181818;stroke-width:0.5;" width="140" x="723.5" y="177"/><ellipse cx="742.55" cy="197.1328" fill="#ADD1B2" rx="11" ry="11" style="stroke:#181818;stroke-width:1.0;"/><path d="M741.3469,198.0078 L742.8,198.0078 L742.8,198.1172 C742.8,198.5234 742.8313,198.6797 742.9094,198.8359 C743.0656,199.0859 743.3469,199.2422 743.6438,199.2422 C743.8938,199.2422 744.1594,199.1016 744.3156,198.8828 C744.4406,198.7266 744.4719,198.5703 744.4719,198.1172 L744.4719,196.1953 C744.4719,196.0391 744.4719,195.9922 744.4563,195.8359 C744.3938,195.3672 744.0813,195.0547 743.6281,195.0547 C743.3781,195.0547 743.1125,195.1953 742.9406,195.4141 C742.8313,195.5859 742.8,195.7422 742.8,196.1953 L742.8,196.3203 L741.3469,196.3203 L741.3469,193.9141 L745.3313,193.9141 L745.3313,194.7734 C745.3313,195.1797 745.3625,195.3516 745.4406,195.5078 C745.6125,195.7578 745.8938,195.9141 746.175,195.9141 C746.4406,195.9141 746.7063,195.7734 746.8781,195.5547 C746.9875,195.3828 747.0188,195.2422 747.0188,194.7734 L747.0188,192.2266 L739.3938,192.2266 C738.9563,192.2266 738.8313,192.2422 738.675,192.3359 C738.425,192.4922 738.2688,192.7891 738.2688,193.0703 C738.2688,193.3516 738.4094,193.6016 738.6281,193.7734 C738.7844,193.8828 738.9719,193.9141 739.3938,193.9141 L739.6438,193.9141 L739.6438,200.4297 L739.3938,200.4297 C738.9875,200.4297 738.8313,200.4453 738.675,200.5547 C738.425,200.7266 738.2688,200.9922 738.2688,201.2891 C738.2688,201.5547 738.4094,201.8047 738.6281,201.9609 C738.7688,202.0859 739.0031,202.1328 739.3938,202.1328 L747.3938,202.1328 L747.3938,199.5547 C747.3938,199.1172 747.3625,198.9766 747.2844,198.8203 C747.1125,198.5703 746.8313,198.4141 746.55,198.4141 C746.2844,198.4141 746.0188,198.5234 745.8469,198.7734 C745.7375,198.9297 745.7063,199.0703 745.7063,199.5547 L745.7063,200.4297 L741.3469,200.4297 L741.3469,198.0078 Z " fill="#000000"/><text fill="#000000" font-family="sans-serif" font-size="12" font-style="italic" lengthAdjust="spacing" textLength="103" x="755.45" y="193.1387">&#171;ENUMERATION&#187;</text><text fill="#000000" font-family="sans-serif" font-size="14" lengthAdjust="spacing" textLength="32" x="790.95" y="208.9639">Role</text><line style="stroke:#181818;stroke-width:0.5;" x1="724.5" x2="862.5" y1="217.2656" y2="217.2656"/><text fill="#000000" font-family="sans-serif" font-size="14" lengthAdjust="spacing" textLength="82" x="729.5" y="234.2607">id: NUMBER</text><text fill="#000000" font-family="sans-serif" font-size="14" lengthAdjust="spacing" textLength="86" x="729.5" y="250.5576">name: TEXT</text><text fill="#000000" font-family="sans-serif" font-size="14" lengthAdjust="spacing" textLength="128" x="729.5" y="266.8545">description: TEXT</text><line style="stroke:#181818;stroke-width:0.5;" x1="724.5" x2="862.5" y1="274.1563" y2="274.1563"/></g><!--link Account to Role--><g id="link_Account_Role"><path codeLine="71" d="M688.535,229.5 C698.428,229.5 708.321,229.5 718.213,229.5 " fill="none" id="Account-to-Role" style="stroke:#181818;stroke-width:1.0;"/><polygon fill="#181818" points="723.387,229.5,714.387,225.5,718.387,229.5,714.387,233.5,723.387,229.5" style="stroke:#181818;stroke-width:1.0;"/><text fill="#000000" font-family="sans-serif" font-size="13" lengthAdjust="spacing" textLength="19" x="696.4413" y="225.7306">0,*</text><text fill="#000000" font-family="sans-serif" font-size="13" lengthAdjust="spacing" textLength="20" x="695.5009" y="242.304">1,1</text></g><!--link Query to Poll--><g id="link_Query_Poll"><path codeLine="94" d="M319.613,229.5 C331.383,229.5 343.153,229.5 354.923,229.5 " fill="none" id="Query-Poll" style="stroke:#181818;stroke-width:1.0;"/><text fill="#000000" font-family="sans-serif" font-size="13" lengthAdjust="spacing" textLength="19" x="327.4308" y="225.7309">0,*</text><text fill="#000000" font-family="sans-serif" font-size="13" lengthAdjust="spacing" textLength="20" x="327.4936" y="242.2485">1,1</text></g><!--link Query to Option--><g id="link_Query_Option"><path codeLine="95" d="M259.557,270.34 C256.093,341.342 248.893,488.944 245.435,559.8265 " fill="none" id="Query-Option" style="stroke:#181818;stroke-width:1.0;"/><text fill="#000000" font-family="sans-serif" font-size="13" lengthAdjust="spacing" textLength="20" x="237.8029" y="289.5464">1,1</text><text fill="#000000" font-family="sans-serif" font-size="13" lengthAdjust="spacing" textLength="19" x="225.182" y="548.9593">0,*</text></g><!--link Answer to Query--><g id="link_Answer_Query"><path codeLine="96" d="M168.043,229.5 C179.847,229.5 191.651,229.5 203.454,229.5 " fill="none" id="Answer-Query" style="stroke:#181818;stroke-width:1.0;"/><text fill="#000000" font-family="sans-serif" font-size="13" lengthAdjust="spacing" textLength="19" x="176.0625" y="225.9097">0,*</text><text fill="#000000" font-family="sans-serif" font-size="13" lengthAdjust="spacing" textLength="20" x="176.046" y="242.5052">1,1</text></g><!--link ChosenOption to Option--><g id="link_ChosenOption_Option"><path codeLine="97" d="M121.823,380.22 C147.004,425.599 193.719,509.786 221.363,559.6063 " fill="none" id="ChosenOption-Option" style="stroke:#181818;stroke-width:1.0;"/><text fill="#000000" font-family="sans-serif" font-size="13" lengthAdjust="spacing" textLength="20" x="103.3339" y="400.4622">1,1</text><text fill="#000000" font-family="sans-serif" font-size="13" lengthAdjust="spacing" textLength="19" x="197.3209" y="549.0034">0,*</text></g><!--link Answer to ChosenOption--><g id="link_Answer_ChosenOption"><path codeLine="98" d="M94.4636,278.221 C96.3158,290.914 98.2688,304.298 99.9546,315.851 " fill="none" id="Answer-ChosenOption" style="stroke:#181818;stroke-width:1.0;"/><text fill="#000000" font-family="sans-serif" font-size="13" lengthAdjust="spacing" textLength="20" x="74.0556" y="297.8589">1,1</text><text fill="#000000" font-family="sans-serif" font-size="13" lengthAdjust="spacing" textLength="19" x="78.0577" y="304.7234">0,*</text></g><!--reverse link PollType to Poll--><g id="link_PollType_Poll"><path codeLine="100" d="M432.608,101.262 C433.113,123.47 433.713,149.87 434.235,172.85 " fill="none" id="PollType-backto-Poll" style="stroke:#181818;stroke-width:1.0;"/><polygon fill="#181818" points="432.489,96.006,428.6932,105.094,432.6019,101.0047,436.6911,104.9134,432.489,96.006" style="stroke:#181818;stroke-width:1.0;"/><text fill="#000000" font-family="sans-serif" font-size="13" lengthAdjust="spacing" textLength="20" x="411.1092" y="116.0572">1,1</text><text fill="#000000" font-family="sans-serif" font-size="13" lengthAdjust="spacing" textLength="19" x="413.923" y="162.0953">0,*</text></g><!--reverse link QueryType to Query--><g id="link_QueryType_Query"><path codeLine="101" d="M261.5,101.081 C261.5,128.686 261.5,162.815 261.5,188.802 " fill="none" id="QueryType-backto-Query" style="stroke:#181818;stroke-width:1.0;"/><polygon fill="#181818" points="261.5,96.006,257.5,105.006,261.5,101.006,265.5,105.006,261.5,96.006" style="stroke:#181818;stroke-width:1.0;"/><text fill="#000000" font-family="sans-serif" font-size="13" lengthAdjust="spacing" textLength="20" x="239.9688" y="116.0572">1,1</text><text fill="#000000" font-family="sans-serif" font-size="13" lengthAdjust="spacing" textLength="19" x="240.9266" y="177.9307">0,*</text></g><!--reverse link OptionType to Option--><g id="link_OptionType_Option"><path codeLine="102" d="M323.059,503.227 C307.85,521.631 290.662,542.4296 276.164,559.9743 " fill="none" id="OptionType-backto-Option" style="stroke:#181818;stroke-width:1.0;"/><polygon fill="#181818" points="326.473,499.096,317.656,503.4848,323.2876,502.95,323.8224,508.5815,326.473,499.096" style="stroke:#181818;stroke-width:1.0;"/><text fill="#000000" font-family="sans-serif" font-size="13" lengthAdjust="spacing" textLength="20" x="299.7128" y="518.8346">1,1</text><text fill="#000000" font-family="sans-serif" font-size="13" lengthAdjust="spacing" textLength="19" x="261.1453" y="548.8331">0,*</text></g><!--link Action to Account--><g id="link_Action_Account"><path codeLine="103" d="M650.785,92.437 C646.487,114.686 641.046,142.848 636.232,167.772 " fill="none" id="Action-to-Account" style="stroke:#181818;stroke-width:1.0;"/><polygon fill="#181818" points="635.278,172.711,640.913,164.6334,636.2267,167.8018,633.0583,163.1155,635.278,172.711" style="stroke:#181818;stroke-width:1.0;"/><text fill="#000000" font-family="sans-serif" font-size="13" lengthAdjust="spacing" textLength="19" x="629.2565" y="111.6577">0,*</text><text fill="#000000" font-family="sans-serif" font-size="13" lengthAdjust="spacing" textLength="20" x="615.3728" y="161.9393">1,1</text></g><!--link Action to Poll--><g id="link_Action_Poll"><path codeLine="104" d="M608.176,92.217 C579.285,115.019 542.458,144.085 510.24,169.512 " fill="none" id="Action-to-Poll" style="stroke:#181818;stroke-width:1.0;"/><polygon fill="#181818" points="505.93,172.914,515.4729,170.4782,509.8549,169.8164,510.5167,164.1984,505.93,172.914" style="stroke:#181818;stroke-width:1.0;"/><text fill="#000000" font-family="sans-serif" font-size="13" lengthAdjust="spacing" textLength="15" x="584.3217" y="111.7084">0*</text><text fill="#000000" font-family="sans-serif" font-size="13" lengthAdjust="spacing" textLength="20" x="493.6726" y="161.7664">1,1</text></g><!--link Action to State--><g id="link_Action_State"><path codeLine="105" d="M734.866,92.01 C778.285,114.909 833.421,144.724 881.5,173 C885.67,175.452 889.928,178.004 894.209,180.608 " fill="none" id="Action-to-State" style="stroke:#181818;stroke-width:1.0;"/><polygon fill="#181818" points="898.495,183.228,892.9005,175.1224,894.2283,180.6212,888.7295,181.949,898.495,183.228" style="stroke:#181818;stroke-width:1.0;"/><text fill="#000000" font-family="sans-serif" font-size="13" lengthAdjust="spacing" textLength="15" x="730.8415" y="111.7714">0*</text><text fill="#000000" font-family="sans-serif" font-size="13" lengthAdjust="spacing" textLength="20" x="871.5724" y="191.0112">1,1</text></g><!--link StateResolve to State--><g id="link_StateResolve_State"><path codeLine="106" d="M888.286,88.246 C874.747,104.411 865.081,124.096 873.5,143 C878.6,154.452 886.077,165.014 894.632,174.521 " fill="none" id="StateResolve-to-State" style="stroke:#181818;stroke-width:1.0;"/><polygon fill="#181818" points="898.093,178.251,894.9035,168.9329,894.6921,174.5858,889.0392,174.3744,898.093,178.251" style="stroke:#181818;stroke-width:1.0;"/><text fill="#000000" font-family="sans-serif" font-size="13" lengthAdjust="spacing" textLength="55" x="874.5" y="139.0669">previous</text><text fill="#000000" font-family="sans-serif" font-size="13" lengthAdjust="spacing" textLength="15" x="865.2177" y="107.6884">0*</text><text fill="#000000" font-family="sans-serif" font-size="13" lengthAdjust="spacing" textLength="20" x="871.38" y="169.0133">1,1</text></g><!--link StateResolve to State--><g id="link_StateResolve_State"><path codeLine="107" d="M937.392,88.116 C942.714,112.134 949.85,144.338 955.945,171.842 " fill="none" id="StateResolve-to-State-1" style="stroke:#181818;stroke-width:1.0;"/><polygon fill="#181818" points="957.07,176.92,959.0287,167.2679,955.9885,172.0384,951.218,168.9982,957.07,176.92" style="stroke:#181818;stroke-width:1.0;"/><text fill="#000000" font-family="sans-serif" font-size="13" lengthAdjust="spacing" textLength="29" x="949.5" y="139.0669">next</text><text fill="#000000" font-family="sans-serif" font-size="13" lengthAdjust="spacing" textLength="15" x="922.4569" y="107.5368">0*</text><text fill="#000000" font-family="sans-serif" font-size="13" lengthAdjust="spacing" textLength="20" x="934.1903" y="165.9121">1,1</text></g><!--SRC=[fLHTQuCm57tFhmXzB7MihwK8RlMXq8_DAUnLD30X6Z6nNHdxxukvKLFDEaTzYkUSdFkHt912PEA2NnYbNmZBBqjNE8gs6_MJ4fvKMIaoLgnmwB-72fKxA37-qrWGaUKIsdYX7sxtFlf6YFJEuQKaUBts3z7U3xnmUpouhYLQ4UUjRR_VIn9M5y8Y9tcSKIEDCkRypAhKW6fEgYjNZ5lVrvfK5ujhmWeX9QCybFwkGWf-9jNa9jziwb6f9taDDzrJmlC7uwGmWz_Cqajk2MKIXsYtyvvslklgrkUvhVLlGcx-Nyv_zK9P1eGpUlh5kQhfk041eoCvxZEHy9CVJCv5NsqyUrpCPzXnCPuj5ykPYe9GCpXuxZYE6g67B1qYXkUG4lAGHrWpjICFVIn3d3VzGKXTUe3LiibYXEc96HCg2mJN1N1ODouMrAp7GeCRJ14Gi6xSBAZfPgFRmf7kj6gzur0fWVDGDUYYu5oSZeEK1cI_5MAqHUZZ1LvfpJb2va-dTPIysw0DKVUO0hpk8ZO4wf-e8Gsr60_0KA1pWOdjid3Ry71HU_gALR7jb1epT3LiDWLUbHKvPQpcKxG5-HG_]--></g></svg>